<svg width="90" height="55" viewBox="0 0 90 55" fill="none" xmlns="http://www.w3.org/2000/svg">
<path d="M70.837 54.8568V27.9902H89.9926V33.8673H78.0528V38.485H89.0063V44.362H78.0528V48.9797H89.9407V54.8568H70.837Z" fill="white"/>
<path d="M36.7892 27.9902H45.77L51.9475 43.2076H52.259L58.4366 27.9902H67.4174V54.8568H60.3573V39.3246H60.1497L54.2317 54.6469H49.9749L44.0569 39.2196H43.8492V54.8568H36.7892V27.9902Z" fill="white"/>
<path d="M33.3694 27.9902V54.8568H26.1536V27.9902H33.3694Z" fill="white"/>
<path d="M0.337036 33.8673V27.9902H23.438V33.8673H15.4435V54.8568H8.33151V33.8673H0.337036Z" fill="white"/>
<path d="M46.6206 22.8738V0.758423H56.0644C57.6882 0.758423 59.109 1.08238 60.3269 1.73029C61.5447 2.3782 62.492 3.28888 63.1685 4.46232C63.8451 5.63577 64.1834 7.00718 64.1834 8.57657C64.1834 10.1604 63.8345 11.5318 63.1365 12.6908C62.4457 13.8499 61.4735 14.7425 60.22 15.3689C58.9737 15.9952 57.5172 16.3083 55.8507 16.3083H50.2101V11.6434H54.6542C55.3522 11.6434 55.9468 11.521 56.4383 11.2762C56.9368 11.0242 57.3178 10.6679 57.5813 10.2071C57.852 9.74641 57.9873 9.20288 57.9873 8.57657C57.9873 7.94305 57.852 7.40313 57.5813 6.95679C57.3178 6.50325 56.9368 6.15769 56.4383 5.92013C55.9468 5.67536 55.3522 5.55298 54.6542 5.55298H52.5603V22.8738H46.6206Z" fill="#64099B"/>
<path d="M37.1299 0.758423H43.0696V14.9261C43.0696 16.6107 42.6708 18.0685 41.8731 19.2995C41.0826 20.5234 39.9787 21.47 38.5614 22.1395C37.1441 22.8019 35.499 23.133 33.6259 23.133C31.7386 23.133 30.0863 22.8019 28.669 22.1395C27.2517 21.47 26.1478 20.5234 25.3573 19.2995C24.5738 18.0685 24.1821 16.6107 24.1821 14.9261V0.758423H30.1219V14.4078C30.1219 15.0917 30.2714 15.7036 30.5706 16.2435C30.8697 16.7763 31.2828 17.1938 31.8098 17.4962C32.3439 17.7985 32.9493 17.9497 33.6259 17.9497C34.3096 17.9497 34.915 17.7985 35.442 17.4962C35.969 17.1938 36.3821 16.7763 36.6812 16.2435C36.9803 15.7036 37.1299 15.0917 37.1299 14.4078V0.758423Z" fill="#64099B"/>
<path d="M21.4874 9.0517H15.4622C15.4195 8.54776 15.3055 8.09063 15.1203 7.68028C14.9423 7.26994 14.693 6.91718 14.3725 6.62202C14.0592 6.31966 13.6781 6.0893 13.2295 5.93092C12.7808 5.76534 12.2715 5.68255 11.7018 5.68255C10.7047 5.68255 9.86076 5.92732 9.16992 6.41685C8.48621 6.90638 7.96631 7.60829 7.61021 8.52257C7.26123 9.43684 7.08674 10.5347 7.08674 11.8161C7.08674 13.1695 7.26479 14.3034 7.62089 15.2177C7.98411 16.1247 8.50758 16.8086 9.19129 17.2694C9.875 17.7229 10.6976 17.9497 11.6591 17.9497C12.2075 17.9497 12.6989 17.8813 13.1333 17.7445C13.5678 17.6005 13.9452 17.3954 14.2657 17.129C14.5862 16.8626 14.8461 16.5423 15.0456 16.1679C15.2521 15.7864 15.391 15.358 15.4622 14.8829L21.4874 14.9261C21.4162 15.862 21.1562 16.8158 20.7075 17.7877C20.2589 18.7524 19.6214 19.6451 18.7953 20.4658C17.9763 21.2792 16.9614 21.9344 15.7506 22.4311C14.5399 22.9278 13.1333 23.1762 11.5309 23.1762C9.52246 23.1762 7.7206 22.7407 6.12527 21.8696C4.53707 20.9985 3.28004 19.7171 2.35418 18.0253C1.43544 16.3335 0.976074 14.2638 0.976074 11.8161C0.976074 9.35406 1.44613 7.28073 2.38623 5.59616C3.32633 3.90439 4.59405 2.62656 6.18937 1.76268C7.7847 0.891596 9.56519 0.456055 11.5309 0.456055C12.9125 0.456055 14.1838 0.646829 15.3447 1.02838C16.5056 1.40993 17.524 1.96785 18.4 2.70215C19.276 3.42925 19.9811 4.32553 20.5153 5.39099C21.0494 6.45645 21.3735 7.67668 21.4874 9.0517Z" fill="#64099B"/>
</svg>
